<?xml version="1.0" encoding="utf-8"?>
<!-- Generator: Adobe Illustrator 16.0.0, SVG Export Plug-In . SVG Version: 6.00 Build 0)  -->
<!DOCTYPE svg PUBLIC "-//W3C//DTD SVG 1.0//EN" "http://www.w3.org/TR/2001/REC-SVG-20010904/DTD/svg10.dtd">
<svg version="1.0" id="Layer_1" xmlns="http://www.w3.org/2000/svg" xmlns:xlink="http://www.w3.org/1999/xlink" x="0px" y="0px"
	 width="41px" height="31px" viewBox="-1 0 41 31" enable-background="new -1 0 41 31" xml:space="preserve">
<g opacity="0.2">
	<g>
		<path d="M38.885,0.55C38.648,0,37.874,0,37.621,0H1.11C0.626,0,0.302,0.154,0.147,0.46C-0.095,0.939,0.27,1.483,0.345,1.589
			l18.816,13.385l19.36-13.29l0.069-0.06C38.678,1.531,39.1,1.048,38.885,0.55z"/>
		<path d="M39.994,27.557V7.216c0-0.5-0.328-0.822-0.836-0.822c-0.264,0-0.508,0.089-0.534,0.098L19.14,19.85L0.393,6.542
			L0.277,6.485C0.245,6.474,0.068,6.421-0.138,6.421c-0.503,0-0.841,0.332-0.841,0.828v19.993c-0.03,0.188-0.085,2.707,0.305,3.189
			C-0.371,30.809,0.103,31,0.735,31h37.474c0.652,0,1.143-0.184,1.456-0.542C40.057,30.012,39.999,27.561,39.994,27.557z"/>
	</g>
</g>
</svg>
