<?xml version="1.0" encoding="utf-8"?>
<!-- Generator: Adobe Illustrator 16.0.0, SVG Export Plug-In . SVG Version: 6.00 Build 0)  -->
<!DOCTYPE svg PUBLIC "-//W3C//DTD SVG 1.1//EN" "http://www.w3.org/Graphics/SVG/1.1/DTD/svg11.dtd">
<svg version="1.1" id="Layer_1" xmlns="http://www.w3.org/2000/svg" xmlns:xlink="http://www.w3.org/1999/xlink" x="0px" y="0px"
	 width="23.942px" height="16.85px" viewBox="0 0 23.942 16.85" enable-background="new 0 0 23.942 16.85" xml:space="preserve">
<g>
	<g>
		<g>
			<path d="M23.942,2c0,0.55-0.45,1-1,1H1C0.45,3,0,2.55,0,2V1c0-0.55,0.45-1,1-1h21.942c0.55,0,1,0.45,1,1V2z"/>
		</g>
		<g>
			<path d="M23.942,8.867c0,0.55-0.45,1-1,1H1c-0.55,0-1-0.45-1-1v-1c0-0.55,0.45-1,1-1h21.942c0.55,0,1,0.45,1,1V8.867z"/>
		</g>
		<g>
			<path d="M23.942,15.85c0,0.55-0.45,1-1,1H1c-0.55,0-1-0.45-1-1v-1c0-0.55,0.45-1,1-1h21.942c0.55,0,1,0.45,1,1V15.85z"/>
		</g>
	</g>
</g>
</svg>
