<?xml version="1.0" encoding="utf-8"?>
<!-- Generator: Adobe Illustrator 16.0.0, SVG Export Plug-In . SVG Version: 6.00 Build 0)  -->
<!DOCTYPE svg PUBLIC "-//W3C//DTD SVG 1.0//EN" "http://www.w3.org/TR/2001/REC-SVG-20010904/DTD/svg10.dtd">
<svg version="1.0" id="Layer_1" xmlns="http://www.w3.org/2000/svg" xmlns:xlink="http://www.w3.org/1999/xlink" x="0px" y="0px"
	 width="41px" height="41px" viewBox="0 0 41 41" enable-background="new 0 0 41 41" xml:space="preserve">
<circle opacity="0.2" cx="20.5" cy="20.499" r="20.5"/>
<path fill="#FFFFFF" d="M30.38,27.07c-0.606-0.549-2.935-2.698-3.667-3.32c-0.73-0.623-1.424,0.104-1.424,0.104l-1.428,1.471
	c0,0-0.573,0.679-1.479,0.223c-0.938-0.467-2.435-1.635-3.831-3.173c-1.227-1.354-2.285-3.04-2.583-4.305
	c-0.232-0.986,0.446-1.428,0.446-1.428l1.668-1.185c0,0,0.825-0.575,0.319-1.395c-0.506-0.818-2.271-3.444-2.723-4.131
	c-0.45-0.683-1.221-0.853-2.121-0.211c-0.593,0.42-2.369,1.76-2.875,3.695c-0.305,1.169-0.264,3.116,0.479,4.999
	c0.409,1.036,1.378,3.499,4.12,6.628c2.952,3.372,5.673,4.866,6.664,5.429c1.646,0.938,3.031,1.134,4.234,1.011
	c1.987-0.207,3.581-1.762,4.088-2.279C31.039,28.407,30.99,27.617,30.38,27.07z"/>
</svg>
