<?xml version="1.0" encoding="utf-8"?>
<!-- Generator: Adobe Illustrator 16.0.0, SVG Export Plug-In . SVG Version: 6.00 Build 0)  -->
<!DOCTYPE svg PUBLIC "-//W3C//DTD SVG 1.0//EN" "http://www.w3.org/TR/2001/REC-SVG-20010904/DTD/svg10.dtd">
<svg version="1.0" id="Layer_1" xmlns="http://www.w3.org/2000/svg" xmlns:xlink="http://www.w3.org/1999/xlink" x="0px" y="0px"
	 width="124px" height="109px" viewBox="0 0 124 109" enable-background="new 0 0 124 109" xml:space="preserve">
<g opacity="0.65">
	<path opacity="0.3" d="M28.799,0.117c-8.04-0.684-15.871,1.66-21.045,6.438C2.587,11.328,0,17.511,0,25.095
		c0,6.742,2.03,12.286,6.078,16.645c4.053,4.353,9.293,6.532,15.717,6.532c4.753,0,8.944-1.127,12.573-3.372
		c1.349,10.914-3.973,34.361-27.239,53.546L15.126,109C35.391,95.77,46.911,78.861,52.174,64.109
		c4.318-12.101,5.107-28.766,1.094-42.039C49.538,9.736,39.779,1.051,28.799,0.117z"/>
</g>
<g opacity="0.65">
	<path opacity="0.3" d="M96.916,0.117c-8.04-0.684-15.871,1.66-21.045,6.438c-5.168,4.773-7.754,10.956-7.754,18.54
		c0,6.742,2.029,12.286,6.077,16.645c4.054,4.353,9.292,6.532,15.716,6.532c4.754,0,8.945-1.127,12.573-3.372
		c1.35,10.914-3.972,34.361-27.238,53.546L83.242,109c20.266-13.229,31.785-30.139,37.049-44.891
		c4.316-12.101,5.106-28.766,1.093-42.039C117.655,9.736,107.895,1.051,96.916,0.117z"/>
</g>
</svg>
